inDegrees=yes
name=coleta1_motion.mot
DataType=double
version=3
OpenSimVersion=4.4-2022-07-23-0e9fedc
endheader
time	pelvis_tilt	pelvis_list	pelvis_rotation	pelvis_tx	pelvis_ty	pelvis_tz	hip_flexion_r	hip_adduction_r	hip_rotation_r	knee_angle_r	knee_angle_r_beta	ankle_angle_r	subtalar_angle_r	mtp_angle_r	hip_flexion_l	hip_adduction_l	hip_rotation_l	knee_angle_l	knee_angle_l_beta	ankle_angle_l	subtalar_angle_l	mtp_angle_l	lumbar_extension	lumbar_bending	lumbar_rotation	arm_flex_r	arm_add_r	arm_rot_r	elbow_flex_r	pro_sup_r	wrist_flex_r	wrist_dev_r	arm_flex_l	arm_add_l	arm_rot_l	elbow_flex_l	pro_sup_l	wrist_flex_l	wrist_dev_l
7.407099008560181	0	0	0	0	0.93	0	20.01349336483835	-3.56007052575704	-39.99940023927081	0.00401441564908787	7.006477062016863e-05	-5.06846783071073	0	0	36.87221007257725	-10.05518773865433	2.616186925556612e-15	56.99907950340148	0.9948216079403702	-5.068467830729213	0	0	0	0	0	0	0	0	4.209429071474227e-38	2.104714535737113e-38	0	0	0	0	0	0	0	0	0
7.413087844848633	2.586273221513765e-33	-3.448364295351686e-33	2.338422037785362e-33	-9.176209408122925e-56	0.93	0	20.58819337070378	-3.617266603452346	-39.99940005918523	0.004101467251083957	7.158410769413601e-05	-5.068282166397909	0	2.354498864366769e-48	36.87764507464028	-10.05507026146771	2.616186925556612e-15	57.00070153718224	0.9948499177704231	-5.068282166416338	0	0	0	0	0	0	5.556446374345979e-36	-4.737711129518498e-48	0	0	1.837657650237478e-48	1.309343052744685e-49	0	-2.273091698596082e-36	0	0	0	0	1.132324247205939e-36
7.428073883056641	0	0	-1.551763932908259e-33	2.356364863342909e-89	0.93	0	21.24720438142213	-3.636817415608435	-39.99940074948863	0.004191929371815854	7.316296954924424e-05	-5.068082716898422	0	0	36.88345812387565	-10.05494416034608	2.616186925556612e-15	57.00243202577191	0.994880120493981	-5.068082716916796	0	0	0	0	0	0	-1.020104917336105e-64	-1.415679958449858e-81	0	0	0	0	0	-6.80069944890737e-65	0	0	0	0	1.700174862226842e-65
7.438093900680542	3.80727836332424e-29	-7.183129577173175e-13	-7.642899817580007e-29	-4.046632006709499e-14	0.93	-2.086501649795086e-14	23.80822895807149	-3.914602554462432	-39.99939583730689	0.00399425383920173	6.971288065449434e-05	-5.066896154897071	1.242081677074088e-23	-1.488044067547176e-23	36.93293231101301	-10.05413946614572	2.616186925556612e-15	57.01977380062313	0.9951827915632744	-5.066896154915126	1.244417328768564e-22	-2.16246240553107e-23	0	1.372985095260184e-17	-2.741911361743101e-29	9.883970572300086e-23	2.793824391145605e-31	-7.192405407333652e-23	4.384070944990321e-07	4.384070944990324e-07	1.694059304979178e-18	4.10486084280555e-19	1.953020580318904e-22	7.099755842798166e-22	1.831284532693828e-21	4.384070944990321e-07	4.384070944990324e-07	-2.320618107341157e-18	-4.878244428155662e-19
7.447090864181518	-1.939704916135324e-34	0	3.448364295351686e-34	8.210733189403225e-48	0.93	-1.112870926815424e-48	24.32333906048201	-3.946247290909954	-39.99939509544431	0.00395075761052406	6.895372825186863e-05	-5.066715544292011	-8.91743761432291e-43	4.014424392198779e-44	36.938315257829	-10.05402466101346	2.616186925556612e-15	57.02138285770625	0.9952108749072274	-5.066715544310016	0	1.51037353481885e-37	0	-7.103575715029313e-52	0	1.254507622562118e-45	-4.51128284911956e-36	-2.115345973490202e-36	0	3.367543257179381e-37	-6.406303677738279e-50	-2.922249175752038e-38	1.903817278435065e-41	0	1.057935880107978e-36	0	3.194774901144914e-37	2.804043045406308e-53	-5.181984912907166e-37
7.455089092254639	0	0	0	0	0.93	0	25.36588107043309	-3.949848341170307	-39.99939764456162	0.00409053473744201	7.139329933556485e-05	-5.065479522959992	0	0	36.98460880657106	-10.0532048923119	2.616186925556612e-15	57.03680010312349	0.9954799566013461	-5.065479522977764	0	0	0	0	0	0	0	0	3.081862731485322e-38	0	0	0	0	0	0	0	8.418858142948453e-38	0	0
7.464070081710815	0	-1.724182147675843e-33	0	0	0.93	0	28.49991701709493	-4.1249228855391	-39.99942995523364	0.004612311318823833	8.05000186404778e-05	-5.064087875586753	0	0	37.0451119911305	-10.05225130738343	2.616186925556612e-15	57.05822681680623	0.9958539233029922	-5.064087875604145	0	0	0	0	0	0	2.499159665320021e-36	0	0	0	0	1.616420763446103e-35	0	2.499159665320021e-36	0	0	0	0	1.616420763446103e-35
7.476102113723755	0	0	0	0	0.93	0	28.80089402001501	-4.184683779251083	-39.99942923115969	0.004594304299700949	8.018573686831389e-05	-5.063947844948994	0	0	37.04940655599631	-10.05216165028006	2.616186925556612e-15	57.05951285461356	0.9958763688970351	-5.063947844966355	0	0	0	0	0	0	0	0	0	0	0	0	0	0	0	0	0	0	0
